# xmcd
#
# Track frame offsets:
#	150
#	14475
#	25392
#	39821
#	60811
#	76524
#	94258
#	111010
#	129391
#	144346
#
# Disc length: 2153 seconds
# Revision: 0
# Processed by: cddbd v1.5.2PL0 Copyright (c) Steve Scherf et al.
# Submitted via: dBpowerAMP V12.0
#
DISCID=6b08670a
DTITLE=Thorbjørn Risager - From the Heart
DYEAR=2006
DGENRE=Blues
TTITLE0=Love Turned Cold
TTITLE1=You Can Have It Your Way
TTITLE2=Burning Up
TTITLE3=Ain't Gonna Turn My Back on You
TTITLE4=Roll 'Em Pete
TTITLE5=Heart of the Night
TTITLE6=Can't Get Enough
TTITLE7=Same Old Blues
TTITLE8=I Don't Mind
TTITLE9=Ain't Ever Gonna Leave No More
EXTD=
EXTT0=
EXTT1=
EXTT2=
EXTT3=
EXTT4=
EXTT5=
EXTT6=
EXTT7=
EXTT8=
EXTT9=
PLAYORDER=
